<svg xmlns="http://www.w3.org/2000/svg" width="2048" height="2048"><defs><pattern id="p" width="256" height="512" patternUnits="userSpaceOnUse"><rect width="256" height="512" fill="#6f4d35"/><rect x="4" width="242" height="512" fill="#6f4d35" stroke="#3d2b22" stroke-width="14"/><path d="M28 0 C58 80 12 160 48 240 S18 400 55 512 M110 0 C150 90 86 180 130 280 S95 420 145 512 M202 0 C175 90 225 180 190 275 S230 420 205 512" fill="none" stroke="#a9794f" stroke-width="7" opacity=".7"/><path d="M20 92 Q115 65 235 105 M20 310 Q120 280 235 330" fill="none" stroke="#3d2b22" stroke-width="5"/><ellipse cx="82" cy="210" rx="28" ry="17" fill="#3d2b22" stroke="#a9794f" stroke-width="6"/><ellipse cx="181" cy="410" rx="22" ry="14" fill="#3d2b22" stroke="#a9794f" stroke-width="5"/></pattern></defs><rect width="2048" height="2048" fill="url(#p)"/></svg>